<?xml version="1.0" encoding="UTF-8"?>
<svg width="1024" height="1024" viewBox="0 0 1024 1024" xmlns="http://www.w3.org/2000/svg">
  <defs>
    <radialGradient id="sunGrad" cx="50%" cy="50%" r="50%">
      <stop offset="0%" stop-color="#b31b00"/>
      <stop offset="60%" stop-color="#d94a00"/>
      <stop offset="100%" stop-color="#ff9900"/>
    </radialGradient>
    <filter id="softGlow" x="-50%" y="-50%" width="200%" height="200%">
      <feGaussianBlur in="SourceGraphic" stdDeviation="6" result="blur"/>
      <feMerge>
        <feMergeNode in="blur"/>
        <feMergeNode in="SourceGraphic"/>
      </feMerge>
    </filter>
  </defs>

  <!-- Sun (center) -->
  <circle cx="512" cy="512" r="140" fill="url(#sunGrad)" filter="url(#softGlow)"/>
  
  <!-- Blue awa spiral -->
  <path d="M 518.000 512.000 L 518.672 512.804 L 519.227 513.769 L 519.637 514.875 L 519.877 516.101 L 519.923 517.421 L 519.759 518.805 L 519.369 520.221 L 518.745 521.634 L 517.882 523.007 L 516.783 524.303 L 515.455 525.485 L 513.909 526.515 L 512.166 527.359 L 510.247 527.984 L 508.183 528.361 L 506.006 528.463 L 503.752 528.269 L 501.464 527.763 L 499.184 526.935 L 496.957 525.779 L 494.830 524.299 L 492.850 522.501 L 491.063 520.401 L 489.512 518.021 L 488.240 515.387 L 487.286 512.534 L 486.683 509.501 L 486.461 506.332 L 486.645 503.076 L 487.249 499.786 L 488.287 496.518 L 489.759 493.327 L 491.662 490.273 L 493.984 487.414 L 496.704 484.807 L 499.794 482.506 L 503.219 480.563 L 506.936 479.027 L 510.896 477.938 L 515.045 477.333 L 519.321 477.243 L 523.661 477.687 L 527.997 478.681 L 532.257 480.229 L 536.372 482.326 L 540.270 484.959 L 543.880 488.106 L 547.134 491.735 L 549.970 495.804 L 552.327 500.265 L 554.152 505.060 L 555.399 510.125 L 556.030 515.389 L 556.014 520.776 L 555.331 526.206 L 553.971 531.596 L 551.934 536.860 L 549.232 541.913 L 545.887 546.670 L 541.931 551.048 L 537.408 554.971 L 532.370 558.362 L 526.882 561.157 L 521.015 563.294 L 514.849 564.723 L 508.469 565.403 L 501.968 565.304 L 495.443 564.407 L 488.990 562.703 L 482.712 560.199 L 476.708 556.913 L 471.076 552.874 L 465.910 548.125 L 461.301 542.721 L 457.332 536.727 L 454.078 530.221 L 451.606 523.288 L 449.970 516.024 L 449.216 508.529 L 449.374 500.913 L 450.463 493.286 L 452.487 485.763 L 455.436 478.460 L 459.287 471.491 L 464.001 464.968 L 469.527 458.999 L 475.797 453.684 L 482.735 449.116 L 490.250 445.381 L 498.241 442.550 L 506.600 440.684 L 515.208 439.831 L 523.943 440.024 L 532.675 441.280 L 541.276 443.602 L 549.614 446.975 L 557.560 451.370 L 564.989 456.741 L 571.780 463.025 L 577.821 470.147 L 583.007 478.017 L 587.247 486.531 L 590.459 495.575 L 592.579 505.023 L 593.554 514.744 L 593.350 524.597 L 591.951 534.440 L 589.354 544.126 L 585.579 553.509 L 580.661 562.445 L 574.654 570.794 L 567.627 578.424 L 559.668 585.209 L 550.879 591.035 L 541.376 595.800 L 531.288 599.417 L 520.755 601.814 L 509.923 602.936 L 498.950 602.746 L 487.993 601.227 L 477.215 598.379 L 466.778 594.225 L 456.840 588.804 L 447.555 582.179 L 439.070 574.428 L 431.522 565.647 L 425.036 555.952 L 419.723 545.471 L 415.678 534.346 L 412.980 522.732 L 411.687 510.793 L 411.839 498.698 L 413.455 486.623 L 416.531 474.747 L 421.042 463.246 L 426.944 452.294 L 434.167 442.060 L 442.626 432.704 L 452.211 424.374 L 462.800 417.208 L 474.248 411.325 L 486.402 406.831 L 499.090 403.807 L 512.136 402.320 L 525.352 402.410 L 538.547 404.098 L 551.528 407.378 L 564.102 412.224 L 576.079 418.585 L 587.276 426.387 L 597.520 435.535 L 606.650 445.910 L 614.516 457.378 L 620.989 469.783 L 625.957 482.956 L 629.328 496.714 L 631.035 510.862 L 631.030 525.200 L 629.295 539.519 L 625.834 553.610 L 620.675 567.264 L 613.876 580.277 L 605.516 592.452 L 595.698 603.600 L 584.549 613.546 L 572.216 622.133 L 558.866 629.218 L 544.682 634.681 L 529.861 638.424 L 514.613 640.373 " fill="none" stroke="#1e90ff" stroke-width="18" stroke-linecap="round" opacity="0.9"/>
  
  <!-- Green koru spiral -->
  <path d="M 526.000 500.000 L 526.557 500.308 L 527.062 500.749 L 527.489 501.313 L 527.818 501.987 L 528.028 502.755 L 528.102 503.598 L 528.026 504.492 L 527.790 505.413 L 527.386 506.336 L 526.812 507.233 L 526.069 508.075 L 525.162 508.836 L 524.102 509.487 L 522.903 510.004 L 521.583 510.362 L 520.162 510.539 L 518.668 510.518 L 517.127 510.283 L 515.570 509.823 L 514.030 509.132 L 512.541 508.209 L 511.135 507.055 L 509.849 505.678 L 508.714 504.092 L 507.764 502.314 L 507.028 500.367 L 506.533 498.276 L 506.303 496.072 L 506.357 493.791 L 506.710 491.468 L 507.374 489.145 L 508.352 486.862 L 509.643 484.663 L 511.242 482.590 L 513.136 480.686 L 515.306 478.992 L 517.728 477.547 L 520.374 476.389 L 523.208 475.549 L 526.191 475.056 L 529.280 474.934 L 532.428 475.201 L 535.586 475.869 L 538.701 476.944 L 541.721 478.424 L 544.592 480.303 L 547.263 482.564 L 549.682 485.187 L 551.801 488.142 L 553.573 491.394 L 554.959 494.903 L 555.922 498.621 L 556.432 502.496 L 556.465 506.473 L 556.004 510.493 L 555.039 514.492 L 553.570 518.408 L 551.603 522.176 L 549.152 525.733 L 546.241 529.016 L 542.901 531.966 L 539.170 534.526 L 535.095 536.645 L 530.728 538.277 L 526.128 539.383 L 521.360 539.929 L 516.493 539.892 L 511.598 539.255 L 506.749 538.013 L 502.024 536.167 L 497.496 533.729 L 493.242 530.720 L 489.332 527.173 L 485.836 523.125 L 482.817 518.628 L 480.334 513.737 L 478.437 508.516 L 477.170 503.038 L 476.568 497.378 L 476.656 491.618 L 477.449 485.843 L 478.951 480.140 L 481.157 474.596 L 484.050 469.299 L 487.601 464.334 L 491.772 459.784 L 496.515 455.726 L 501.769 452.232 L 507.469 449.366 L 513.537 447.186 L 519.891 445.739 L 526.442 445.062 L 533.096 445.181 L 539.754 446.112 L 546.319 447.856 L 552.689 450.404 L 558.766 453.735 L 564.453 457.813 L 569.658 462.594 L 574.294 468.020 L 578.280 474.022 L 581.545 480.522 L 584.027 487.433 L 585.673 494.660 L 586.445 502.101 L 586.313 509.649 L 585.265 517.195 L 583.298 524.627 L 580.425 531.831 L 576.673 538.698 L 572.081 545.119 L 566.704 550.992 L 560.607 556.221 L 553.867 560.715 L 546.575 564.398 L 538.827 567.200 L 530.732 569.065 L 522.403 569.950 L 513.958 569.826 L 505.522 568.678 L 497.218 566.506 L 489.171 563.326 L 481.505 559.169 L 474.338 554.081 L 467.783 548.121 L 461.947 541.365 L 456.928 533.899 L 452.810 525.822 L 449.670 517.244 L 447.568 508.284 L 446.550 499.068 L 446.647 489.727 L 447.876 480.397 L 450.233 471.216 L 453.702 462.320 L 458.247 453.844 " fill="none" stroke="#2ecc71" stroke-width="18" stroke-linecap="round" opacity="0.95"/>
</svg>
